<?xml version="1.0" standalone="no"?>
<!DOCTYPE svg PUBLIC "-//W3C//DTD SVG 20010904//EN"
 "http://www.w3.org/TR/2001/REC-SVG-20010904/DTD/svg10.dtd">
<svg version="1.0" xmlns="http://www.w3.org/2000/svg"
 width="512.000000pt" height="512.000000pt" viewBox="0 0 512.000000 512.000000"
 preserveAspectRatio="xMidYMid meet">
<metadata>
Created by potrace 1.14, written by Peter Selinger 2001-2017
</metadata>
<g transform="translate(0.000000,512.000000) scale(0.100000,-0.100000)"
fill="#000000" stroke="none">
<path d="M120 5101 c-47 -25 -90 -69 -106 -108 -12 -27 -14 -432 -14 -2436 l0
-2404 23 -44 c13 -24 43 -57 66 -74 l43 -30 2411 -3 2412 -2 51 25 c33 16 62
40 80 67 l29 41 3 2139 c2 2097 2 2139 -17 2176 -24 48 -605 606 -669 644 -44
26 -55 28 -159 28 l-113 0 0 -722 c0 -446 -4 -737 -10 -759 -5 -19 -24 -48
-41 -65 l-30 -29 -857 -3 c-846 -2 -857 -2 -890 18 -64 39 -62 14 -62 825 l0
735 -1057 0 c-1012 -1 -1060 -2 -1093 -19z m4030 -4081 l0 -790 -1595 0 -1595
0 0 790 0 790 1595 0 1595 0 0 -790z"/>
<path d="M1160 1440 l0 -50 1400 0 1400 0 0 50 0 50 -1400 0 -1400 0 0 -50z"/>
<path d="M1160 1025 l0 -55 1400 0 1400 0 0 55 0 55 -1400 0 -1400 0 0 -55z"/>
<path d="M1160 600 l0 -50 1400 0 1400 0 0 50 0 50 -1400 0 -1400 0 0 -50z"/>
<path d="M3360 4870 c-19 -19 -20 -33 -20 -500 0 -467 1 -481 20 -500 19 -19
33 -20 199 -20 161 0 181 2 202 19 l24 19 0 480 c0 458 -1 481 -19 501 -18 20
-29 21 -203 21 -170 0 -184 -1 -203 -20z"/>
</g>
</svg>
